# xmcd
#
# Track frame offsets: 
#        150
#        15590
#        32219
#        56200
#        77557
#        89252
#        110436
#        140338
#        156810
#        176776
#
# Disc length: 2708 seconds
#
# Revision: 3
# Processed by: cddbd v1.5.2PL0 Copyright (c) Steve Scherf et al.
# Submitted via: ExactAudioCopyFreeDBPlugin 1.0
#
DISCID=7c0a920a
DTITLE=Lilium - Short Stories
DYEAR=2003
DGENRE=Other
TTITLE0=If they cheered
TTITLE1=Locked in tight
TTITLE2=Whitewashed
TTITLE3=Lover
TTITLE4=Miles away
TTITLE5=Sorry
TTITLE6=Sense and grief
TTITLE7=Cavalcade
TTITLE8=The trap
TTITLE9=Angels
EXTD=
EXTT0=
EXTT1=
EXTT2=
EXTT3=
EXTT4=
EXTT5=
EXTT6=
EXTT7=
EXTT8=
EXTT9=
PLAYORDER=
